<svg width="92" height="595" viewBox="0 0 92 595" fill="none" xmlns="http://www.w3.org/2000/svg">
<path d="M50.9219 137.406C53.8594 137.844 56.5469 138.656 58.9844 139.844C61.4219 141.031 63.5156 142.531 65.2656 144.344C67.0781 146.094 68.4531 148.094 69.3906 150.344C70.3906 152.594 70.8906 155 70.8906 157.562C70.8906 160.188 70.4219 162.625 69.4844 164.875C68.5469 167.125 67.2344 169.125 65.5469 170.875C63.8594 172.625 61.8281 174.125 59.4531 175.375C57.0781 176.562 54.4844 177.375 51.6719 177.812V196C54.4844 195.875 57.0469 195.781 59.3594 195.719C61.6719 195.656 63.5781 195.594 65.0781 195.531C69.2656 195.344 73.5156 195.062 77.8281 194.688C82.2031 194.25 86.0781 193.781 89.4531 193.281L88.3281 200.969C85.8281 200.844 82.5781 200.75 78.5781 200.688C74.5781 200.625 70.4844 200.562 66.2969 200.5C64.5469 200.5 62.4219 200.531 59.9219 200.594C57.4219 200.594 54.7031 200.656 51.7656 200.781C48.8906 200.844 45.9219 200.938 42.8594 201.062C39.8594 201.125 36.9844 201.219 34.2344 201.344C31.4844 201.406 28.9844 201.5 26.7344 201.625C24.5469 201.75 22.8281 201.844 21.5781 201.906C19.2031 202.031 16.6719 202.219 13.9844 202.469C11.2969 202.719 8.79688 203 6.48438 203.312L3.48438 195.062C6.29688 195.375 9.26562 195.656 12.3906 195.906C15.5781 196.094 18.6094 196.25 21.4844 196.375C22.6094 196.438 23.9531 196.469 25.5156 196.469C27.1406 196.469 28.8906 196.469 30.7656 196.469C32.6406 196.469 34.6094 196.469 36.6719 196.469C38.7344 196.406 40.7969 196.344 42.8594 196.281V178C39.8594 177.688 37.0781 176.969 34.5156 175.844C32.0156 174.656 29.8594 173.188 28.0469 171.438C26.2344 169.625 24.7969 167.562 23.7344 165.25C22.7344 162.875 22.2344 160.312 22.2344 157.562C22.2344 154.875 22.7656 152.344 23.8281 149.969C24.8906 147.594 26.3594 145.5 28.2344 143.688C30.1719 141.875 32.4531 140.406 35.0781 139.281C37.7031 138.156 40.5469 137.469 43.6094 137.219C43.6094 136.281 43.3281 135.531 42.7656 134.969C42.2031 134.406 41.0156 133.875 39.2031 133.375L40.9844 130.562C41.7344 130.75 42.5781 130.938 43.5156 131.125C44.4531 131.312 45.4219 131.5 46.4219 131.688C47.4844 131.875 48.5156 132.062 49.5156 132.25C50.5781 132.438 51.5156 132.625 52.3281 132.812C52.0781 133.375 51.7969 134.062 51.4844 134.875C51.2344 135.688 51.0469 136.531 50.9219 137.406ZM61.3281 157.562C61.3281 155.375 60.9219 153.312 60.1094 151.375C59.3594 149.438 58.3281 147.781 57.0156 146.406C55.7031 144.969 54.1406 143.844 52.3281 143.031C50.5781 142.219 48.6719 141.812 46.6094 141.812C44.6094 141.812 42.7031 142.219 40.8906 143.031C39.1406 143.844 37.6094 144.969 36.2969 146.406C34.9844 147.781 33.9219 149.438 33.1094 151.375C32.3594 153.312 31.9844 155.375 31.9844 157.562C31.9844 159.812 32.3594 161.875 33.1094 163.75C33.9219 165.625 34.9844 167.25 36.2969 168.625C37.6094 170 39.1406 171.094 40.8906 171.906C42.7031 172.656 44.6094 173.031 46.6094 173.031C48.6719 173.031 50.5781 172.656 52.3281 171.906C54.1406 171.094 55.7031 170 57.0156 168.625C58.3906 167.25 59.4531 165.625 60.2031 163.75C60.9531 161.875 61.3281 159.812 61.3281 157.562Z" fill="black"/>
<path d="M80.678 26.76V27.528L73.766 28.296C72.23 28.488 71.206 28.872 70.694 29.448C70.182 30.024 69.926 31.08 69.926 32.616V94.536H68.966L25.862 33.384H25.478V87.144C25.478 88.68 25.67 89.768 26.054 90.408C26.438 90.984 27.206 91.336 28.358 91.464L35.174 92.232V93H14.15V92.232L21.062 91.464C22.214 91.336 22.982 90.984 23.366 90.408C23.75 89.768 23.942 88.68 23.942 87.144V31.272L23.558 30.696C22.662 29.416 21.798 28.584 20.966 28.2C20.198 27.752 19.046 27.528 17.51 27.528H15.878V26.76H30.182L68.006 79.752H68.39V32.616C68.39 31.08 68.198 29.992 67.814 29.352C67.43 28.712 66.662 28.36 65.51 28.296L57.734 27.528V26.76H80.678ZM56.1778 328.984C53.2338 330.968 49.9378 331.96 46.2898 331.96C42.2578 331.96 38.6738 330.776 35.5378 328.408H35.1538L32.2738 331H31.5058V268.312L25.8418 266.2V265.528L36.9778 261.784H37.7458V294.808C41.1378 291.16 45.0738 289.336 49.5538 289.336C52.6898 289.336 55.4738 290.168 57.9058 291.832C60.3378 293.496 62.2258 295.832 63.5698 298.84C64.9138 301.784 65.5858 305.208 65.5858 309.112C65.5858 313.464 64.7538 317.368 63.0898 320.824C61.4258 324.28 59.1218 327 56.1778 328.984ZM40.0498 328.408C41.5858 330.136 43.6338 331 46.1938 331C49.9058 331 52.8498 329.208 55.0258 325.624C57.2658 321.976 58.3858 317.144 58.3858 311.128C58.3858 305.304 57.2978 300.696 55.1218 297.304C53.0098 293.912 50.0658 292.216 46.2898 292.216C44.5618 292.216 42.9298 292.568 41.3938 293.272C39.9218 293.976 38.7058 294.968 37.7458 296.248V321.304C37.7458 324.248 38.5138 326.616 40.0498 328.408ZM50.1365 380.784V448.464L55.9925 449.232V450H38.0405V449.232L43.8965 448.464V387.312L38.2325 385.2V384.528L49.3685 380.784H50.1365ZM63.0871 558.056L63.4711 558.248L63.0871 559.304C61.8071 562.696 59.8871 565.32 57.3271 567.176C54.8311 569.032 51.8231 569.96 48.3031 569.96C44.8471 569.96 41.7751 569.064 39.0871 567.272C36.3991 565.48 34.2871 562.984 32.7511 559.784C31.2791 556.584 30.5431 552.904 30.5431 548.744C30.5431 544.584 31.3431 540.872 32.9431 537.608C34.5431 534.344 36.8151 531.816 39.7591 530.024C42.7031 528.232 46.0631 527.336 49.8391 527.336C54.3191 527.336 57.7431 528.68 60.1111 531.368C62.5431 533.992 63.7911 537.832 63.8551 542.888L63.2791 543.368H37.3591C37.2311 545.032 37.1671 546.344 37.1671 547.304C37.1671 553.128 38.3511 557.576 40.7191 560.648C43.0871 563.656 46.3831 565.16 50.6071 565.16C52.7831 565.16 54.8631 564.68 56.8471 563.72C58.8951 562.696 60.6871 561.192 62.2231 559.208L63.0871 558.056ZM48.7831 528.392C45.7751 528.392 43.2791 529.64 41.2951 532.136C39.3111 534.632 38.0311 538.024 37.4551 542.312L56.0791 541.64C56.2711 540.872 56.3671 539.592 56.3671 537.8C56.3671 534.344 55.6951 531.912 54.3511 530.504C53.0711 529.096 51.2151 528.392 48.7831 528.392Z" fill="black"/>
</svg>
