<svg width="431" height="401" viewBox="0 0 431 401" fill="none" xmlns="http://www.w3.org/2000/svg">
<path d="M66.8718 238.26V239.028L59.9598 239.796C58.4238 239.988 57.3998 240.372 56.8878 240.948C56.3758 241.524 56.1198 242.58 56.1198 244.116V306.036H55.1598L12.0558 244.884H11.6718V298.644C11.6718 300.18 11.8638 301.268 12.2478 301.908C12.6318 302.484 13.3998 302.836 14.5518 302.964L21.3678 303.732V304.5H0.343756V303.732L7.25576 302.964C8.40776 302.836 9.17576 302.484 9.55976 301.908C9.94376 301.268 10.1358 300.18 10.1358 298.644V242.772L9.75176 242.196C8.85576 240.916 7.99176 240.084 7.15976 239.7C6.39176 239.252 5.23976 239.028 3.70376 239.028H2.07176V238.26H16.3758L54.1998 291.252H54.5838V244.116C54.5838 242.58 54.3918 241.492 54.0078 240.852C53.6238 240.212 52.8558 239.86 51.7038 239.796L43.9278 239.028V238.26H66.8718ZM133.751 236.724C139.319 236.724 144.407 238.26 149.015 241.332C153.687 244.404 157.335 248.596 159.959 253.908C162.647 259.156 163.991 264.98 163.991 271.38C163.991 277.78 162.647 283.636 159.959 288.948C157.335 294.196 153.687 298.356 149.015 301.428C144.407 304.5 139.319 306.036 133.751 306.036C128.183 306.036 123.063 304.5 118.391 301.428C113.783 298.356 110.135 294.196 107.447 288.948C104.823 283.636 103.511 277.78 103.511 271.38C103.511 264.98 104.823 259.156 107.447 253.908C110.135 248.596 113.783 244.404 118.391 241.332C123.063 238.26 128.183 236.724 133.751 236.724ZM112.727 271.38C112.727 282.068 114.551 290.324 118.199 296.148C121.847 301.908 127.031 304.788 133.751 304.788C140.471 304.788 145.655 301.908 149.303 296.148C152.951 290.324 154.775 282.068 154.775 271.38C154.775 260.692 152.951 252.436 149.303 246.612C145.655 240.788 140.471 237.876 133.751 237.876C127.031 237.876 121.847 240.788 118.199 246.612C114.551 252.436 112.727 260.692 112.727 271.38ZM236.328 269.556C241.896 270.324 246.152 272.148 249.096 275.028C252.04 277.908 253.512 281.684 253.512 286.356C253.512 291.476 251.72 295.796 248.136 299.316C244.616 302.772 239.176 304.5 231.816 304.5H203.496V303.732L211.368 302.964V239.796L203.496 239.028V238.26H227.4C234.952 238.26 240.712 239.604 244.68 242.292C248.648 244.98 250.632 248.884 250.632 254.004C250.632 258.1 249.384 261.492 246.888 264.18C244.392 266.868 240.872 268.532 236.328 269.172V269.556ZM218.76 239.412V268.884H229.896C234.184 268.884 237.256 267.636 239.112 265.14C241.032 262.644 241.992 258.932 241.992 254.004C241.992 244.276 237.032 239.412 227.112 239.412H218.76ZM229.512 303.348C239.432 303.348 244.392 297.78 244.392 286.644C244.392 280.82 243.144 276.596 240.648 273.972C238.152 271.348 234.44 270.036 229.512 270.036H218.76V303.348H229.512ZM301.631 302.964V239.796L293.759 239.028V238.26H317.375V239.028L309.023 239.796V303.348H330.239C331.775 303.348 332.895 303.124 333.599 302.676C334.303 302.164 334.943 301.204 335.519 299.796L342.047 283.38L343.199 283.572L340.799 304.5H293.759V303.732L301.631 302.964ZM430.367 284.34L427.967 304.5H380.927V303.732L388.799 302.964V239.796L380.927 239.028V238.26H428.063L429.407 256.308L428.447 256.404L423.071 242.964C422.495 241.492 421.855 240.532 421.151 240.084C420.511 239.636 419.423 239.412 417.887 239.412H396.191V268.884H410.399C411.935 268.884 413.023 268.628 413.663 268.116C414.303 267.604 414.751 266.612 415.007 265.14L416.639 257.364H417.791V281.94H416.639L415.007 274.164C414.751 272.692 414.303 271.7 413.663 271.188C413.023 270.676 411.935 270.42 410.399 270.42H396.191V303.348H417.695C419.231 303.348 420.351 303.124 421.055 302.676C421.759 302.164 422.399 301.204 422.975 299.796L429.311 284.244L430.367 284.34ZM81.7405 324.7V338.5H80.3405V327.48L75.4205 338.5H74.4005L69.4805 327.52V338.5H68.0805V324.7H69.5605L74.9005 336.66L80.2405 324.7H81.7405ZM97.7964 332.48C97.7964 332.96 97.7831 333.327 97.7564 333.58H88.6964C88.7364 334.407 88.9364 335.113 89.2964 335.7C89.6564 336.287 90.1297 336.733 90.7164 337.04C91.3031 337.333 91.9431 337.48 92.6364 337.48C93.5431 337.48 94.3031 337.26 94.9164 336.82C95.5431 336.38 95.9564 335.787 96.1564 335.04H97.6364C97.3697 336.107 96.7964 336.98 95.9164 337.66C95.0497 338.327 93.9564 338.66 92.6364 338.66C91.6097 338.66 90.6897 338.433 89.8764 337.98C89.0631 337.513 88.4231 336.86 87.9564 336.02C87.5031 335.167 87.2764 334.173 87.2764 333.04C87.2764 331.907 87.5031 330.913 87.9564 330.06C88.4097 329.207 89.0431 328.553 89.8564 328.1C90.6697 327.647 91.5964 327.42 92.6364 327.42C93.6764 327.42 94.5831 327.647 95.3564 328.1C96.1431 328.553 96.7431 329.167 97.1564 329.94C97.5831 330.7 97.7964 331.547 97.7964 332.48ZM96.3764 332.44C96.3897 331.627 96.2231 330.933 95.8764 330.36C95.5431 329.787 95.0831 329.353 94.4964 329.06C93.9097 328.767 93.2697 328.62 92.5764 328.62C91.5364 328.62 90.6497 328.953 89.9164 329.62C89.1831 330.287 88.7764 331.227 88.6964 332.44H96.3764ZM108.478 327.38C109.784 327.38 110.851 327.787 111.678 328.6C112.504 329.4 112.918 330.567 112.918 332.1V338.5H111.538V332.26C111.538 331.073 111.238 330.167 110.638 329.54C110.051 328.913 109.244 328.6 108.218 328.6C107.164 328.6 106.324 328.933 105.698 329.6C105.071 330.267 104.758 331.247 104.758 332.54V338.5H103.358V327.58H104.758V329.44C105.104 328.773 105.604 328.267 106.258 327.92C106.911 327.56 107.651 327.38 108.478 327.38ZM119.194 324.52H120.814L119.054 328.84H118.034L119.194 324.52ZM129.719 338.66C128.466 338.66 127.439 338.373 126.639 337.8C125.853 337.213 125.413 336.42 125.319 335.42H126.759C126.826 336.033 127.113 336.533 127.619 336.92C128.139 337.293 128.833 337.48 129.699 337.48C130.459 337.48 131.053 337.3 131.479 336.94C131.919 336.58 132.139 336.133 132.139 335.6C132.139 335.227 132.019 334.92 131.779 334.68C131.539 334.44 131.233 334.253 130.859 334.12C130.499 333.973 130.006 333.82 129.379 333.66C128.566 333.447 127.906 333.233 127.399 333.02C126.893 332.807 126.459 332.493 126.099 332.08C125.753 331.653 125.579 331.087 125.579 330.38C125.579 329.847 125.739 329.353 126.059 328.9C126.379 328.447 126.833 328.087 127.419 327.82C128.006 327.553 128.673 327.42 129.419 327.42C130.593 327.42 131.539 327.72 132.259 328.32C132.979 328.907 133.366 329.72 133.419 330.76H132.019C131.979 330.12 131.726 329.607 131.259 329.22C130.806 328.82 130.179 328.62 129.379 328.62C128.673 328.62 128.099 328.787 127.659 329.12C127.219 329.453 126.999 329.867 126.999 330.36C126.999 330.787 127.126 331.14 127.379 331.42C127.646 331.687 127.973 331.9 128.359 332.06C128.746 332.207 129.266 332.373 129.919 332.56C130.706 332.773 131.333 332.98 131.799 333.18C132.266 333.38 132.666 333.673 132.999 334.06C133.333 334.447 133.506 334.96 133.519 335.6C133.519 336.187 133.359 336.713 133.039 337.18C132.719 337.633 132.273 337.993 131.699 338.26C131.126 338.527 130.466 338.66 129.719 338.66ZM155.203 324.52V325.68H149.043V330.9H154.243V332.06H149.043V338.5H147.643V324.52H155.203ZM159.866 333.02C159.866 331.9 160.086 330.92 160.526 330.08C160.98 329.227 161.6 328.573 162.386 328.12C163.186 327.653 164.086 327.42 165.086 327.42C166.126 327.42 167.02 327.66 167.766 328.14C168.526 328.62 169.073 329.233 169.406 329.98V327.58H170.806V338.5H169.406V336.08C169.06 336.827 168.506 337.447 167.746 337.94C167 338.42 166.106 338.66 165.066 338.66C164.08 338.66 163.186 338.427 162.386 337.96C161.6 337.493 160.98 336.833 160.526 335.98C160.086 335.127 159.866 334.14 159.866 333.02ZM169.406 333.04C169.406 332.16 169.226 331.387 168.866 330.72C168.506 330.053 168.013 329.54 167.386 329.18C166.773 328.82 166.093 328.64 165.346 328.64C164.573 328.64 163.88 328.813 163.266 329.16C162.653 329.507 162.166 330.013 161.806 330.68C161.46 331.333 161.286 332.113 161.286 333.02C161.286 333.913 161.46 334.7 161.806 335.38C162.166 336.047 162.653 336.56 163.266 336.92C163.88 337.267 164.573 337.44 165.346 337.44C166.093 337.44 166.773 337.26 167.386 336.9C168.013 336.54 168.506 336.027 168.866 335.36C169.226 334.693 169.406 333.92 169.406 333.04ZM180.762 338.66C179.509 338.66 178.482 338.373 177.682 337.8C176.896 337.213 176.456 336.42 176.362 335.42H177.802C177.869 336.033 178.156 336.533 178.662 336.92C179.182 337.293 179.876 337.48 180.742 337.48C181.502 337.48 182.096 337.3 182.522 336.94C182.962 336.58 183.182 336.133 183.182 335.6C183.182 335.227 183.062 334.92 182.822 334.68C182.582 334.44 182.276 334.253 181.902 334.12C181.542 333.973 181.049 333.82 180.422 333.66C179.609 333.447 178.949 333.233 178.442 333.02C177.936 332.807 177.502 332.493 177.142 332.08C176.796 331.653 176.622 331.087 176.622 330.38C176.622 329.847 176.782 329.353 177.102 328.9C177.422 328.447 177.876 328.087 178.462 327.82C179.049 327.553 179.716 327.42 180.462 327.42C181.636 327.42 182.582 327.72 183.302 328.32C184.022 328.907 184.409 329.72 184.462 330.76H183.062C183.022 330.12 182.769 329.607 182.302 329.22C181.849 328.82 181.222 328.62 180.422 328.62C179.716 328.62 179.142 328.787 178.702 329.12C178.262 329.453 178.042 329.867 178.042 330.36C178.042 330.787 178.169 331.14 178.422 331.42C178.689 331.687 179.016 331.9 179.402 332.06C179.789 332.207 180.309 332.373 180.962 332.56C181.749 332.773 182.376 332.98 182.842 333.18C183.309 333.38 183.709 333.673 184.042 334.06C184.376 334.447 184.549 334.96 184.562 335.6C184.562 336.187 184.402 336.713 184.082 337.18C183.762 337.633 183.316 337.993 182.742 338.26C182.169 338.527 181.509 338.66 180.762 338.66ZM195.398 327.38C196.224 327.38 196.964 327.553 197.618 327.9C198.284 328.247 198.804 328.78 199.178 329.5C199.564 330.207 199.758 331.073 199.758 332.1V338.5H198.378V332.26C198.378 331.073 198.078 330.167 197.478 329.54C196.891 328.913 196.084 328.6 195.058 328.6C194.004 328.6 193.164 328.933 192.538 329.6C191.911 330.267 191.598 331.247 191.598 332.54V338.5H190.198V323.7H191.598V329.44C191.944 328.787 192.451 328.28 193.118 327.92C193.798 327.56 194.558 327.38 195.398 327.38ZM206.554 325.52C206.274 325.52 206.034 325.42 205.834 325.22C205.634 325.02 205.534 324.773 205.534 324.48C205.534 324.187 205.634 323.947 205.834 323.76C206.034 323.56 206.274 323.46 206.554 323.46C206.834 323.46 207.074 323.56 207.274 323.76C207.474 323.947 207.574 324.187 207.574 324.48C207.574 324.773 207.474 325.02 207.274 325.22C207.074 325.42 206.834 325.52 206.554 325.52ZM207.254 327.58V338.5H205.854V327.58H207.254ZM218.204 338.66C217.178 338.66 216.251 338.433 215.424 337.98C214.611 337.513 213.964 336.86 213.484 336.02C213.018 335.167 212.784 334.173 212.784 333.04C212.784 331.907 213.024 330.92 213.504 330.08C213.984 329.227 214.638 328.573 215.464 328.12C216.291 327.653 217.218 327.42 218.244 327.42C219.271 327.42 220.198 327.653 221.024 328.12C221.864 328.573 222.518 329.227 222.984 330.08C223.464 330.92 223.704 331.907 223.704 333.04C223.704 334.16 223.464 335.147 222.984 336C222.504 336.853 221.844 337.513 221.004 337.98C220.164 338.433 219.231 338.66 218.204 338.66ZM218.204 337.44C218.924 337.44 219.591 337.28 220.204 336.96C220.818 336.627 221.311 336.133 221.684 335.48C222.071 334.813 222.264 334 222.264 333.04C222.264 332.08 222.078 331.273 221.704 330.62C221.331 329.953 220.838 329.46 220.224 329.14C219.611 328.807 218.944 328.64 218.224 328.64C217.504 328.64 216.838 328.807 216.224 329.14C215.611 329.46 215.118 329.953 214.744 330.62C214.384 331.273 214.204 332.08 214.204 333.04C214.204 334 214.384 334.813 214.744 335.48C215.118 336.133 215.604 336.627 216.204 336.96C216.818 337.28 217.484 337.44 218.204 337.44ZM234.376 327.38C235.683 327.38 236.75 327.787 237.576 328.6C238.403 329.4 238.816 330.567 238.816 332.1V338.5H237.436V332.26C237.436 331.073 237.136 330.167 236.536 329.54C235.95 328.913 235.143 328.6 234.116 328.6C233.063 328.6 232.223 328.933 231.596 329.6C230.97 330.267 230.656 331.247 230.656 332.54V338.5H229.256V327.58H230.656V329.44C231.003 328.773 231.503 328.267 232.156 327.92C232.81 327.56 233.55 327.38 234.376 327.38ZM259.941 331.28C260.727 331.427 261.394 331.827 261.941 332.48C262.487 333.133 262.761 333.893 262.761 334.76C262.761 335.467 262.581 336.107 262.221 336.68C261.874 337.24 261.361 337.687 260.681 338.02C260.001 338.34 259.187 338.5 258.241 338.5H253.401V324.52H258.101C259.514 324.52 260.587 324.847 261.321 325.5C262.067 326.153 262.441 327 262.441 328.04C262.441 328.907 262.207 329.613 261.741 330.16C261.274 330.693 260.674 331.067 259.941 331.28ZM254.801 330.7H258.061C259.007 330.7 259.734 330.48 260.241 330.04C260.761 329.587 261.021 328.967 261.021 328.18C261.021 327.407 260.761 326.8 260.241 326.36C259.734 325.92 258.987 325.7 258.001 325.7H254.801V330.7ZM258.141 337.32C259.154 337.32 259.941 337.08 260.501 336.6C261.074 336.12 261.361 335.46 261.361 334.62C261.361 333.78 261.061 333.113 260.461 332.62C259.874 332.113 259.081 331.86 258.081 331.86H254.801V337.32H258.141ZM269.734 329.52C270.041 328.84 270.508 328.313 271.134 327.94C271.774 327.567 272.554 327.38 273.474 327.38V328.84H273.094C272.081 328.84 271.268 329.113 270.654 329.66C270.041 330.207 269.734 331.12 269.734 332.4V338.5H268.334V327.58H269.734V329.52ZM277.94 333.02C277.94 331.9 278.16 330.92 278.6 330.08C279.054 329.227 279.674 328.573 280.46 328.12C281.26 327.653 282.16 327.42 283.16 327.42C284.2 327.42 285.094 327.66 285.84 328.14C286.6 328.62 287.147 329.233 287.48 329.98V327.58H288.88V338.5H287.48V336.08C287.134 336.827 286.58 337.447 285.82 337.94C285.074 338.42 284.18 338.66 283.14 338.66C282.154 338.66 281.26 338.427 280.46 337.96C279.674 337.493 279.054 336.833 278.6 335.98C278.16 335.127 277.94 334.14 277.94 333.02ZM287.48 333.04C287.48 332.16 287.3 331.387 286.94 330.72C286.58 330.053 286.087 329.54 285.46 329.18C284.847 328.82 284.167 328.64 283.42 328.64C282.647 328.64 281.954 328.813 281.34 329.16C280.727 329.507 280.24 330.013 279.88 330.68C279.534 331.333 279.36 332.113 279.36 333.02C279.36 333.913 279.534 334.7 279.88 335.38C280.24 336.047 280.727 336.56 281.34 336.92C281.954 337.267 282.647 337.44 283.42 337.44C284.167 337.44 284.847 337.26 285.46 336.9C286.087 336.54 286.58 336.027 286.94 335.36C287.3 334.693 287.48 333.92 287.48 333.04ZM294.437 333.04C294.437 331.907 294.663 330.92 295.117 330.08C295.57 329.227 296.197 328.573 296.997 328.12C297.797 327.653 298.71 327.42 299.737 327.42C301.083 327.42 302.19 327.753 303.057 328.42C303.937 329.087 304.503 329.993 304.757 331.14H303.257C303.07 330.353 302.663 329.74 302.037 329.3C301.423 328.847 300.657 328.62 299.737 328.62C299.003 328.62 298.343 328.787 297.757 329.12C297.17 329.453 296.703 329.953 296.357 330.62C296.023 331.273 295.857 332.08 295.857 333.04C295.857 334 296.023 334.813 296.357 335.48C296.703 336.147 297.17 336.647 297.757 336.98C298.343 337.313 299.003 337.48 299.737 337.48C300.657 337.48 301.423 337.26 302.037 336.82C302.663 336.367 303.07 335.74 303.257 334.94H304.757C304.503 336.06 303.937 336.96 303.057 337.64C302.177 338.32 301.07 338.66 299.737 338.66C298.71 338.66 297.797 338.433 296.997 337.98C296.197 337.513 295.57 336.86 295.117 336.02C294.663 335.167 294.437 334.173 294.437 333.04ZM320.222 332.48C320.222 332.96 320.209 333.327 320.182 333.58H311.122C311.162 334.407 311.362 335.113 311.722 335.7C312.082 336.287 312.556 336.733 313.142 337.04C313.729 337.333 314.369 337.48 315.062 337.48C315.969 337.48 316.729 337.26 317.342 336.82C317.969 336.38 318.382 335.787 318.582 335.04H320.062C319.796 336.107 319.222 336.98 318.342 337.66C317.476 338.327 316.382 338.66 315.062 338.66C314.036 338.66 313.116 338.433 312.302 337.98C311.489 337.513 310.849 336.86 310.382 336.02C309.929 335.167 309.702 334.173 309.702 333.04C309.702 331.907 309.929 330.913 310.382 330.06C310.836 329.207 311.469 328.553 312.282 328.1C313.096 327.647 314.022 327.42 315.062 327.42C316.102 327.42 317.009 327.647 317.782 328.1C318.569 328.553 319.169 329.167 319.582 329.94C320.009 330.7 320.222 331.547 320.222 332.48ZM318.802 332.44C318.816 331.627 318.649 330.933 318.302 330.36C317.969 329.787 317.509 329.353 316.922 329.06C316.336 328.767 315.696 328.62 315.002 328.62C313.962 328.62 313.076 328.953 312.342 329.62C311.609 330.287 311.202 331.227 311.122 332.44H318.802ZM327.184 323.7V338.5H325.784V323.7H327.184ZM343.234 332.48C343.234 332.96 343.221 333.327 343.194 333.58H334.134C334.174 334.407 334.374 335.113 334.734 335.7C335.094 336.287 335.567 336.733 336.154 337.04C336.741 337.333 337.381 337.48 338.074 337.48C338.981 337.48 339.741 337.26 340.354 336.82C340.981 336.38 341.394 335.787 341.594 335.04H343.074C342.807 336.107 342.234 336.98 341.354 337.66C340.487 338.327 339.394 338.66 338.074 338.66C337.047 338.66 336.127 338.433 335.314 337.98C334.501 337.513 333.861 336.86 333.394 336.02C332.941 335.167 332.714 334.173 332.714 333.04C332.714 331.907 332.941 330.913 333.394 330.06C333.847 329.207 334.481 328.553 335.294 328.1C336.107 327.647 337.034 327.42 338.074 327.42C339.114 327.42 340.021 327.647 340.794 328.1C341.581 328.553 342.181 329.167 342.594 329.94C343.021 330.7 343.234 331.547 343.234 332.48ZM341.814 332.44C341.827 331.627 341.661 330.933 341.314 330.36C340.981 329.787 340.521 329.353 339.934 329.06C339.347 328.767 338.707 328.62 338.014 328.62C336.974 328.62 336.087 328.953 335.354 329.62C334.621 330.287 334.214 331.227 334.134 332.44H341.814ZM350.615 328.76V335.54C350.615 336.207 350.742 336.667 350.995 336.92C351.249 337.173 351.695 337.3 352.335 337.3H353.615V338.5H352.115C351.129 338.5 350.395 338.273 349.915 337.82C349.435 337.353 349.195 336.593 349.195 335.54V328.76H347.675V327.58H349.195V324.84H350.615V327.58H353.615V328.76H350.615ZM362.684 338.66C361.431 338.66 360.404 338.373 359.604 337.8C358.818 337.213 358.378 336.42 358.284 335.42H359.724C359.791 336.033 360.078 336.533 360.584 336.92C361.104 337.293 361.798 337.48 362.664 337.48C363.424 337.48 364.018 337.3 364.444 336.94C364.884 336.58 365.104 336.133 365.104 335.6C365.104 335.227 364.984 334.92 364.744 334.68C364.504 334.44 364.198 334.253 363.824 334.12C363.464 333.973 362.971 333.82 362.344 333.66C361.531 333.447 360.871 333.233 360.364 333.02C359.858 332.807 359.424 332.493 359.064 332.08C358.718 331.653 358.544 331.087 358.544 330.38C358.544 329.847 358.704 329.353 359.024 328.9C359.344 328.447 359.798 328.087 360.384 327.82C360.971 327.553 361.638 327.42 362.384 327.42C363.558 327.42 364.504 327.72 365.224 328.32C365.944 328.907 366.331 329.72 366.384 330.76H364.984C364.944 330.12 364.691 329.607 364.224 329.22C363.771 328.82 363.144 328.62 362.344 328.62C361.638 328.62 361.064 328.787 360.624 329.12C360.184 329.453 359.964 329.867 359.964 330.36C359.964 330.787 360.091 331.14 360.344 331.42C360.611 331.687 360.938 331.9 361.324 332.06C361.711 332.207 362.231 332.373 362.884 332.56C363.671 332.773 364.298 332.98 364.764 333.18C365.231 333.38 365.631 333.673 365.964 334.06C366.298 334.447 366.471 334.96 366.484 335.6C366.484 336.187 366.324 336.713 366.004 337.18C365.684 337.633 365.238 337.993 364.664 338.26C364.091 338.527 363.431 338.66 362.684 338.66Z" fill="black"/>
<path d="M227.754 70.6797C233.874 71.5911 239.473 73.2839 244.551 75.7578C249.629 78.2318 253.991 81.3568 257.637 85.1328C261.413 88.7786 264.277 92.9453 266.23 97.6328C268.314 102.32 269.355 107.333 269.355 112.672C269.355 118.141 268.379 123.219 266.426 127.906C264.473 132.594 261.738 136.76 258.223 140.406C254.707 144.052 250.475 147.177 245.527 149.781C240.579 152.255 235.176 153.948 229.316 154.859V192.75C235.176 192.49 240.514 192.294 245.332 192.164C250.15 192.034 254.121 191.904 257.246 191.773C265.97 191.383 274.824 190.797 283.809 190.016C292.923 189.104 300.996 188.128 308.027 187.086L305.684 203.102C300.475 202.841 293.704 202.646 285.371 202.516C277.038 202.385 268.509 202.255 259.785 202.125C256.139 202.125 251.712 202.19 246.504 202.32C241.296 202.32 235.632 202.451 229.512 202.711C223.522 202.841 217.337 203.036 210.957 203.297C204.707 203.427 198.717 203.622 192.988 203.883C187.259 204.013 182.051 204.208 177.363 204.469C172.806 204.729 169.225 204.924 166.621 205.055C161.673 205.315 156.4 205.706 150.801 206.227C145.202 206.747 139.993 207.333 135.176 207.984L128.926 190.797C134.785 191.448 140.97 192.034 147.48 192.555C154.121 192.945 160.436 193.271 166.426 193.531C168.77 193.661 171.569 193.727 174.824 193.727C178.21 193.727 181.855 193.727 185.762 193.727C189.668 193.727 193.77 193.727 198.066 193.727C202.363 193.596 206.66 193.466 210.957 193.336V155.25C204.707 154.599 198.913 153.102 193.574 150.758C188.366 148.284 183.874 145.224 180.098 141.578C176.322 137.802 173.327 133.505 171.113 128.688C169.03 123.74 167.988 118.401 167.988 112.672C167.988 107.073 169.095 101.799 171.309 96.8516C173.522 91.9036 176.582 87.5417 180.488 83.7656C184.525 79.9896 189.277 76.9297 194.746 74.5859C200.215 72.2422 206.139 70.8099 212.52 70.2891C212.52 68.3359 211.934 66.7734 210.762 65.6016C209.59 64.4297 207.116 63.3229 203.34 62.2812L207.051 56.4219C208.613 56.8125 210.371 57.2031 212.324 57.5938C214.277 57.9844 216.296 58.375 218.379 58.7656C220.592 59.1562 222.741 59.5469 224.824 59.9375C227.038 60.3281 228.991 60.7188 230.684 61.1094C230.163 62.2812 229.577 63.7135 228.926 65.4062C228.405 67.099 228.014 68.8568 227.754 70.6797ZM249.434 112.672C249.434 108.115 248.587 103.818 246.895 99.7812C245.332 95.7448 243.184 92.2943 240.449 89.4297C237.715 86.4349 234.46 84.0911 230.684 82.3984C227.038 80.7057 223.066 79.8594 218.77 79.8594C214.603 79.8594 210.632 80.7057 206.855 82.3984C203.21 84.0911 200.02 86.4349 197.285 89.4297C194.551 92.2943 192.337 95.7448 190.645 99.7812C189.082 103.818 188.301 108.115 188.301 112.672C188.301 117.359 189.082 121.656 190.645 125.562C192.337 129.469 194.551 132.854 197.285 135.719C200.02 138.583 203.21 140.862 206.855 142.555C210.632 144.117 214.603 144.898 218.77 144.898C223.066 144.898 227.038 144.117 230.684 142.555C234.46 140.862 237.715 138.583 240.449 135.719C243.314 132.854 245.527 129.469 247.09 125.562C248.652 121.656 249.434 117.359 249.434 112.672Z" fill="url(#paint0_linear_29_396)"/>
<defs>
<linearGradient id="paint0_linear_29_396" x1="190" y1="81.5" x2="337.5" y2="246.5" gradientUnits="userSpaceOnUse">
<stop stop-color="#3C6858"/>
<stop offset="1"/>
</linearGradient>
</defs>
</svg>
