<svg width="450" height="450" viewBox="0 0 450 450" fill="none" xmlns="http://www.w3.org/2000/svg">
<path d="M74.3718 264.135V264.903L67.4598 265.671C65.9238 265.863 64.8998 266.247 64.3878 266.823C63.8758 267.399 63.6198 268.455 63.6198 269.991V331.911H62.6598L19.5558 270.759H19.1718V324.519C19.1718 326.055 19.3638 327.143 19.7478 327.783C20.1318 328.359 20.8998 328.711 22.0518 328.839L28.8678 329.607V330.375H7.84376V329.607L14.7558 328.839C15.9078 328.711 16.6758 328.359 17.0598 327.783C17.4438 327.143 17.6358 326.055 17.6358 324.519V268.647L17.2518 268.071C16.3558 266.791 15.4918 265.959 14.6598 265.575C13.8918 265.127 12.7398 264.903 11.2038 264.903H9.57176V264.135H23.8758L61.6998 317.127H62.0838V269.991C62.0838 268.455 61.8918 267.367 61.5078 266.727C61.1238 266.087 60.3558 265.735 59.2038 265.671L51.4278 264.903V264.135H74.3718ZM141.251 262.599C146.819 262.599 151.907 264.135 156.515 267.207C161.187 270.279 164.835 274.471 167.459 279.783C170.147 285.031 171.491 290.855 171.491 297.255C171.491 303.655 170.147 309.511 167.459 314.823C164.835 320.071 161.187 324.231 156.515 327.303C151.907 330.375 146.819 331.911 141.251 331.911C135.683 331.911 130.563 330.375 125.891 327.303C121.283 324.231 117.635 320.071 114.947 314.823C112.323 309.511 111.011 303.655 111.011 297.255C111.011 290.855 112.323 285.031 114.947 279.783C117.635 274.471 121.283 270.279 125.891 267.207C130.563 264.135 135.683 262.599 141.251 262.599ZM120.227 297.255C120.227 307.943 122.051 316.199 125.699 322.023C129.347 327.783 134.531 330.663 141.251 330.663C147.971 330.663 153.155 327.783 156.803 322.023C160.451 316.199 162.275 307.943 162.275 297.255C162.275 286.567 160.451 278.311 156.803 272.487C153.155 266.663 147.971 263.751 141.251 263.751C134.531 263.751 129.347 266.663 125.699 272.487C122.051 278.311 120.227 286.567 120.227 297.255ZM243.828 295.431C249.396 296.199 253.652 298.023 256.596 300.903C259.54 303.783 261.012 307.559 261.012 312.231C261.012 317.351 259.22 321.671 255.636 325.191C252.116 328.647 246.676 330.375 239.316 330.375H210.996V329.607L218.868 328.839V265.671L210.996 264.903V264.135H234.9C242.452 264.135 248.212 265.479 252.18 268.167C256.148 270.855 258.132 274.759 258.132 279.879C258.132 283.975 256.884 287.367 254.388 290.055C251.892 292.743 248.372 294.407 243.828 295.047V295.431ZM226.26 265.287V294.759H237.396C241.684 294.759 244.756 293.511 246.612 291.015C248.532 288.519 249.492 284.807 249.492 279.879C249.492 270.151 244.532 265.287 234.612 265.287H226.26ZM237.012 329.223C246.932 329.223 251.892 323.655 251.892 312.519C251.892 306.695 250.644 302.471 248.148 299.847C245.652 297.223 241.94 295.911 237.012 295.911H226.26V329.223H237.012ZM309.131 328.839V265.671L301.259 264.903V264.135H324.875V264.903L316.523 265.671V329.223H337.739C339.275 329.223 340.395 328.999 341.099 328.551C341.803 328.039 342.443 327.079 343.019 325.671L349.547 309.255L350.699 309.447L348.299 330.375H301.259V329.607L309.131 328.839ZM437.867 310.215L435.467 330.375H388.427V329.607L396.299 328.839V265.671L388.427 264.903V264.135H435.563L436.907 282.183L435.947 282.279L430.571 268.839C429.995 267.367 429.355 266.407 428.651 265.959C428.011 265.511 426.923 265.287 425.387 265.287H403.691V294.759H417.899C419.435 294.759 420.523 294.503 421.163 293.991C421.803 293.479 422.251 292.487 422.507 291.015L424.139 283.239H425.291V307.815H424.139L422.507 300.039C422.251 298.567 421.803 297.575 421.163 297.063C420.523 296.551 419.435 296.295 417.899 296.295H403.691V329.223H425.195C426.731 329.223 427.851 328.999 428.555 328.551C429.259 328.039 429.899 327.079 430.475 325.671L436.811 310.119L437.867 310.215Z" fill="black"/>
<path d="M234.816 104.18C240.936 105.091 246.535 106.784 251.613 109.258C256.691 111.732 261.053 114.857 264.699 118.633C268.475 122.279 271.34 126.445 273.293 131.133C275.376 135.82 276.418 140.833 276.418 146.172C276.418 151.641 275.441 156.719 273.488 161.406C271.535 166.094 268.801 170.26 265.285 173.906C261.77 177.552 257.538 180.677 252.59 183.281C247.642 185.755 242.238 187.448 236.379 188.359V226.25C242.238 225.99 247.577 225.794 252.395 225.664C257.212 225.534 261.184 225.404 264.309 225.273C273.033 224.883 281.887 224.297 290.871 223.516C299.986 222.604 308.059 221.628 315.09 220.586L312.746 236.602C307.538 236.341 300.767 236.146 292.434 236.016C284.1 235.885 275.572 235.755 266.848 235.625C263.202 235.625 258.775 235.69 253.566 235.82C248.358 235.82 242.694 235.951 236.574 236.211C230.585 236.341 224.4 236.536 218.02 236.797C211.77 236.927 205.78 237.122 200.051 237.383C194.322 237.513 189.113 237.708 184.426 237.969C179.868 238.229 176.288 238.424 173.684 238.555C168.736 238.815 163.462 239.206 157.863 239.727C152.264 240.247 147.056 240.833 142.238 241.484L135.988 224.297C141.848 224.948 148.033 225.534 154.543 226.055C161.184 226.445 167.499 226.771 173.488 227.031C175.832 227.161 178.632 227.227 181.887 227.227C185.272 227.227 188.918 227.227 192.824 227.227C196.73 227.227 200.832 227.227 205.129 227.227C209.426 227.096 213.723 226.966 218.02 226.836V188.75C211.77 188.099 205.975 186.602 200.637 184.258C195.428 181.784 190.936 178.724 187.16 175.078C183.384 171.302 180.389 167.005 178.176 162.188C176.092 157.24 175.051 151.901 175.051 146.172C175.051 140.573 176.158 135.299 178.371 130.352C180.585 125.404 183.645 121.042 187.551 117.266C191.587 113.49 196.34 110.43 201.809 108.086C207.277 105.742 213.202 104.31 219.582 103.789C219.582 101.836 218.996 100.273 217.824 99.1016C216.652 97.9297 214.178 96.8229 210.402 95.7812L214.113 89.9219C215.676 90.3125 217.434 90.7031 219.387 91.0938C221.34 91.4844 223.358 91.875 225.441 92.2656C227.655 92.6562 229.803 93.0469 231.887 93.4375C234.1 93.8281 236.053 94.2188 237.746 94.6094C237.225 95.7812 236.639 97.2135 235.988 98.9062C235.467 100.599 235.077 102.357 234.816 104.18ZM256.496 146.172C256.496 141.615 255.65 137.318 253.957 133.281C252.395 129.245 250.246 125.794 247.512 122.93C244.777 119.935 241.522 117.591 237.746 115.898C234.1 114.206 230.129 113.359 225.832 113.359C221.665 113.359 217.694 114.206 213.918 115.898C210.272 117.591 207.082 119.935 204.348 122.93C201.613 125.794 199.4 129.245 197.707 133.281C196.145 137.318 195.363 141.615 195.363 146.172C195.363 150.859 196.145 155.156 197.707 159.062C199.4 162.969 201.613 166.354 204.348 169.219C207.082 172.083 210.272 174.362 213.918 176.055C217.694 177.617 221.665 178.398 225.832 178.398C230.129 178.398 234.1 177.617 237.746 176.055C241.522 174.362 244.777 172.083 247.512 169.219C250.376 166.354 252.59 162.969 254.152 159.062C255.715 155.156 256.496 150.859 256.496 146.172Z" fill="url(#paint0_linear_26_12)"/>
<defs>
<linearGradient id="paint0_linear_26_12" x1="193.625" y1="91.125" x2="359.563" y2="276.75" gradientUnits="userSpaceOnUse">
<stop stop-color="#3C6858"/>
<stop offset="1"/>
</linearGradient>
</defs>
</svg>
