<svg width="450" height="450" viewBox="0 0 450 450" fill="none" xmlns="http://www.w3.org/2000/svg">
<path d="M74.7468 264.135V264.903L67.8348 265.671C66.2988 265.863 65.2748 266.247 64.7628 266.823C64.2508 267.399 63.9948 268.455 63.9948 269.991V331.911H63.0348L19.9308 270.759H19.5468V324.519C19.5468 326.055 19.7388 327.143 20.1228 327.783C20.5068 328.359 21.2748 328.711 22.4268 328.839L29.2428 329.607V330.375H8.21876V329.607L15.1308 328.839C16.2828 328.711 17.0508 328.359 17.4348 327.783C17.8188 327.143 18.0108 326.055 18.0108 324.519V268.647L17.6268 268.071C16.7308 266.791 15.8668 265.959 15.0348 265.575C14.2668 265.127 13.1148 264.903 11.5788 264.903H9.94676V264.135H24.2508L62.0748 317.127H62.4588V269.991C62.4588 268.455 62.2668 267.367 61.8828 266.727C61.4988 266.087 60.7308 265.735 59.5788 265.671L51.8028 264.903V264.135H74.7468ZM141.626 262.599C147.194 262.599 152.282 264.135 156.89 267.207C161.562 270.279 165.21 274.471 167.834 279.783C170.522 285.031 171.866 290.855 171.866 297.255C171.866 303.655 170.522 309.511 167.834 314.823C165.21 320.071 161.562 324.231 156.89 327.303C152.282 330.375 147.194 331.911 141.626 331.911C136.058 331.911 130.938 330.375 126.266 327.303C121.658 324.231 118.01 320.071 115.322 314.823C112.698 309.511 111.386 303.655 111.386 297.255C111.386 290.855 112.698 285.031 115.322 279.783C118.01 274.471 121.658 270.279 126.266 267.207C130.938 264.135 136.058 262.599 141.626 262.599ZM120.602 297.255C120.602 307.943 122.426 316.199 126.074 322.023C129.722 327.783 134.906 330.663 141.626 330.663C148.346 330.663 153.53 327.783 157.178 322.023C160.826 316.199 162.65 307.943 162.65 297.255C162.65 286.567 160.826 278.311 157.178 272.487C153.53 266.663 148.346 263.751 141.626 263.751C134.906 263.751 129.722 266.663 126.074 272.487C122.426 278.311 120.602 286.567 120.602 297.255ZM244.203 295.431C249.771 296.199 254.027 298.023 256.971 300.903C259.915 303.783 261.387 307.559 261.387 312.231C261.387 317.351 259.595 321.671 256.011 325.191C252.491 328.647 247.051 330.375 239.691 330.375H211.371V329.607L219.243 328.839V265.671L211.371 264.903V264.135H235.275C242.827 264.135 248.587 265.479 252.555 268.167C256.523 270.855 258.507 274.759 258.507 279.879C258.507 283.975 257.259 287.367 254.763 290.055C252.267 292.743 248.747 294.407 244.203 295.047V295.431ZM226.635 265.287V294.759H237.771C242.059 294.759 245.131 293.511 246.987 291.015C248.907 288.519 249.867 284.807 249.867 279.879C249.867 270.151 244.907 265.287 234.987 265.287H226.635ZM237.387 329.223C247.307 329.223 252.267 323.655 252.267 312.519C252.267 306.695 251.019 302.471 248.523 299.847C246.027 297.223 242.315 295.911 237.387 295.911H226.635V329.223H237.387ZM309.506 328.839V265.671L301.634 264.903V264.135H325.25V264.903L316.898 265.671V329.223H338.114C339.65 329.223 340.77 328.999 341.474 328.551C342.178 328.039 342.818 327.079 343.394 325.671L349.922 309.255L351.074 309.447L348.674 330.375H301.634V329.607L309.506 328.839ZM438.242 310.215L435.842 330.375H388.802V329.607L396.674 328.839V265.671L388.802 264.903V264.135H435.938L437.282 282.183L436.322 282.279L430.946 268.839C430.37 267.367 429.73 266.407 429.026 265.959C428.386 265.511 427.298 265.287 425.762 265.287H404.066V294.759H418.274C419.81 294.759 420.898 294.503 421.538 293.991C422.178 293.479 422.626 292.487 422.882 291.015L424.514 283.239H425.666V307.815H424.514L422.882 300.039C422.626 298.567 422.178 297.575 421.538 297.063C420.898 296.551 419.81 296.295 418.274 296.295H404.066V329.223H425.57C427.106 329.223 428.226 328.999 428.93 328.551C429.634 328.039 430.274 327.079 430.85 325.671L437.186 310.119L438.242 310.215Z" fill="black"/>
<path d="M234.816 104.18C240.936 105.091 246.535 106.784 251.613 109.258C256.691 111.732 261.053 114.857 264.699 118.633C268.475 122.279 271.34 126.445 273.293 131.133C275.376 135.82 276.418 140.833 276.418 146.172C276.418 151.641 275.441 156.719 273.488 161.406C271.535 166.094 268.801 170.26 265.285 173.906C261.77 177.552 257.538 180.677 252.59 183.281C247.642 185.755 242.238 187.448 236.379 188.359V226.25C242.238 225.99 247.577 225.794 252.395 225.664C257.212 225.534 261.184 225.404 264.309 225.273C273.033 224.883 281.887 224.297 290.871 223.516C299.986 222.604 308.059 221.628 315.09 220.586L312.746 236.602C307.538 236.341 300.767 236.146 292.434 236.016C284.1 235.885 275.572 235.755 266.848 235.625C263.202 235.625 258.775 235.69 253.566 235.82C248.358 235.82 242.694 235.951 236.574 236.211C230.585 236.341 224.4 236.536 218.02 236.797C211.77 236.927 205.78 237.122 200.051 237.383C194.322 237.513 189.113 237.708 184.426 237.969C179.868 238.229 176.288 238.424 173.684 238.555C168.736 238.815 163.462 239.206 157.863 239.727C152.264 240.247 147.056 240.833 142.238 241.484L135.988 224.297C141.848 224.948 148.033 225.534 154.543 226.055C161.184 226.445 167.499 226.771 173.488 227.031C175.832 227.161 178.632 227.227 181.887 227.227C185.272 227.227 188.918 227.227 192.824 227.227C196.73 227.227 200.832 227.227 205.129 227.227C209.426 227.096 213.723 226.966 218.02 226.836V188.75C211.77 188.099 205.975 186.602 200.637 184.258C195.428 181.784 190.936 178.724 187.16 175.078C183.384 171.302 180.389 167.005 178.176 162.188C176.092 157.24 175.051 151.901 175.051 146.172C175.051 140.573 176.158 135.299 178.371 130.352C180.585 125.404 183.645 121.042 187.551 117.266C191.587 113.49 196.34 110.43 201.809 108.086C207.277 105.742 213.202 104.31 219.582 103.789C219.582 101.836 218.996 100.273 217.824 99.1016C216.652 97.9297 214.178 96.8229 210.402 95.7812L214.113 89.9219C215.676 90.3125 217.434 90.7031 219.387 91.0938C221.34 91.4844 223.358 91.875 225.441 92.2656C227.655 92.6562 229.803 93.0469 231.887 93.4375C234.1 93.8281 236.053 94.2188 237.746 94.6094C237.225 95.7812 236.639 97.2135 235.988 98.9062C235.467 100.599 235.077 102.357 234.816 104.18ZM256.496 146.172C256.496 141.615 255.65 137.318 253.957 133.281C252.395 129.245 250.246 125.794 247.512 122.93C244.777 119.935 241.522 117.591 237.746 115.898C234.1 114.206 230.129 113.359 225.832 113.359C221.665 113.359 217.694 114.206 213.918 115.898C210.272 117.591 207.082 119.935 204.348 122.93C201.613 125.794 199.4 129.245 197.707 133.281C196.145 137.318 195.363 141.615 195.363 146.172C195.363 150.859 196.145 155.156 197.707 159.062C199.4 162.969 201.613 166.354 204.348 169.219C207.082 172.083 210.272 174.362 213.918 176.055C217.694 177.617 221.665 178.398 225.832 178.398C230.129 178.398 234.1 177.617 237.746 176.055C241.522 174.362 244.777 172.083 247.512 169.219C250.376 166.354 252.59 162.969 254.152 159.062C255.715 155.156 256.496 150.859 256.496 146.172Z" fill="url(#paint0_linear_45_25)"/>
<defs>
<linearGradient id="paint0_linear_45_25" x1="193.625" y1="91.125" x2="359.563" y2="276.75" gradientUnits="userSpaceOnUse">
<stop/>
<stop offset="1"/>
</linearGradient>
</defs>
</svg>
