<svg width="450" height="451" viewBox="0 0 450 451" fill="none" xmlns="http://www.w3.org/2000/svg">
<path d="M74.7468 264.635V265.403L67.8348 266.171C66.2988 266.363 65.2748 266.747 64.7628 267.323C64.2508 267.899 63.9948 268.955 63.9948 270.491V332.411H63.0348L19.9308 271.259H19.5468V325.019C19.5468 326.555 19.7388 327.643 20.1228 328.283C20.5068 328.859 21.2748 329.211 22.4268 329.339L29.2428 330.107V330.875H8.21876V330.107L15.1308 329.339C16.2828 329.211 17.0508 328.859 17.4348 328.283C17.8188 327.643 18.0108 326.555 18.0108 325.019V269.147L17.6268 268.571C16.7308 267.291 15.8668 266.459 15.0348 266.075C14.2668 265.627 13.1148 265.403 11.5788 265.403H9.94676V264.635H24.2508L62.0748 317.627H62.4588V270.491C62.4588 268.955 62.2668 267.867 61.8828 267.227C61.4988 266.587 60.7308 266.235 59.5788 266.171L51.8028 265.403V264.635H74.7468ZM141.626 263.099C147.194 263.099 152.282 264.635 156.89 267.707C161.562 270.779 165.21 274.971 167.834 280.283C170.522 285.531 171.866 291.355 171.866 297.755C171.866 304.155 170.522 310.011 167.834 315.323C165.21 320.571 161.562 324.731 156.89 327.803C152.282 330.875 147.194 332.411 141.626 332.411C136.058 332.411 130.938 330.875 126.266 327.803C121.658 324.731 118.01 320.571 115.322 315.323C112.698 310.011 111.386 304.155 111.386 297.755C111.386 291.355 112.698 285.531 115.322 280.283C118.01 274.971 121.658 270.779 126.266 267.707C130.938 264.635 136.058 263.099 141.626 263.099ZM120.602 297.755C120.602 308.443 122.426 316.699 126.074 322.523C129.722 328.283 134.906 331.163 141.626 331.163C148.346 331.163 153.53 328.283 157.178 322.523C160.826 316.699 162.65 308.443 162.65 297.755C162.65 287.067 160.826 278.811 157.178 272.987C153.53 267.163 148.346 264.251 141.626 264.251C134.906 264.251 129.722 267.163 126.074 272.987C122.426 278.811 120.602 287.067 120.602 297.755ZM244.203 295.931C249.771 296.699 254.027 298.523 256.971 301.403C259.915 304.283 261.387 308.059 261.387 312.731C261.387 317.851 259.595 322.171 256.011 325.691C252.491 329.147 247.051 330.875 239.691 330.875H211.371V330.107L219.243 329.339V266.171L211.371 265.403V264.635H235.275C242.827 264.635 248.587 265.979 252.555 268.667C256.523 271.355 258.507 275.259 258.507 280.379C258.507 284.475 257.259 287.867 254.763 290.555C252.267 293.243 248.747 294.907 244.203 295.547V295.931ZM226.635 265.787V295.259H237.771C242.059 295.259 245.131 294.011 246.987 291.515C248.907 289.019 249.867 285.307 249.867 280.379C249.867 270.651 244.907 265.787 234.987 265.787H226.635ZM237.387 329.723C247.307 329.723 252.267 324.155 252.267 313.019C252.267 307.195 251.019 302.971 248.523 300.347C246.027 297.723 242.315 296.411 237.387 296.411H226.635V329.723H237.387ZM309.506 329.339V266.171L301.634 265.403V264.635H325.25V265.403L316.898 266.171V329.723H338.114C339.65 329.723 340.77 329.499 341.474 329.051C342.178 328.539 342.818 327.579 343.394 326.171L349.922 309.755L351.074 309.947L348.674 330.875H301.634V330.107L309.506 329.339ZM438.242 310.715L435.842 330.875H388.802V330.107L396.674 329.339V266.171L388.802 265.403V264.635H435.938L437.282 282.683L436.322 282.779L430.946 269.339C430.37 267.867 429.73 266.907 429.026 266.459C428.386 266.011 427.298 265.787 425.762 265.787H404.066V295.259H418.274C419.81 295.259 420.898 295.003 421.538 294.491C422.178 293.979 422.626 292.987 422.882 291.515L424.514 283.739H425.666V308.315H424.514L422.882 300.539C422.626 299.067 422.178 298.075 421.538 297.563C420.898 297.051 419.81 296.795 418.274 296.795H404.066V329.723H425.57C427.106 329.723 428.226 329.499 428.93 329.051C429.634 328.539 430.274 327.579 430.85 326.171L437.186 310.619L438.242 310.715ZM89.6155 351.075V364.875H88.2155V353.855L83.2955 364.875H82.2755L77.3555 353.895V364.875H75.9555V351.075H77.4355L82.7755 363.035L88.1155 351.075H89.6155ZM105.671 358.855C105.671 359.335 105.658 359.702 105.631 359.955H96.5714C96.6114 360.782 96.8114 361.488 97.1714 362.075C97.5314 362.662 98.0047 363.108 98.5914 363.415C99.1781 363.708 99.8181 363.855 100.511 363.855C101.418 363.855 102.178 363.635 102.791 363.195C103.418 362.755 103.831 362.162 104.031 361.415H105.511C105.245 362.482 104.671 363.355 103.791 364.035C102.925 364.702 101.831 365.035 100.511 365.035C99.4847 365.035 98.5647 364.808 97.7514 364.355C96.9381 363.888 96.2981 363.235 95.8314 362.395C95.3781 361.542 95.1514 360.548 95.1514 359.415C95.1514 358.282 95.3781 357.288 95.8314 356.435C96.2847 355.582 96.9181 354.928 97.7314 354.475C98.5447 354.022 99.4714 353.795 100.511 353.795C101.551 353.795 102.458 354.022 103.231 354.475C104.018 354.928 104.618 355.542 105.031 356.315C105.458 357.075 105.671 357.922 105.671 358.855ZM104.251 358.815C104.265 358.002 104.098 357.308 103.751 356.735C103.418 356.162 102.958 355.728 102.371 355.435C101.785 355.142 101.145 354.995 100.451 354.995C99.4114 354.995 98.5247 355.328 97.7914 355.995C97.0581 356.662 96.6514 357.602 96.5714 358.815H104.251ZM116.353 353.755C117.659 353.755 118.726 354.162 119.553 354.975C120.379 355.775 120.793 356.942 120.793 358.475V364.875H119.413V358.635C119.413 357.448 119.113 356.542 118.513 355.915C117.926 355.288 117.119 354.975 116.093 354.975C115.039 354.975 114.199 355.308 113.573 355.975C112.946 356.642 112.633 357.622 112.633 358.915V364.875H111.233V353.955H112.633V355.815C112.979 355.148 113.479 354.642 114.133 354.295C114.786 353.935 115.526 353.755 116.353 353.755ZM127.069 350.895H128.689L126.929 355.215H125.909L127.069 350.895ZM137.594 365.035C136.341 365.035 135.314 364.748 134.514 364.175C133.728 363.588 133.288 362.795 133.194 361.795H134.634C134.701 362.408 134.988 362.908 135.494 363.295C136.014 363.668 136.708 363.855 137.574 363.855C138.334 363.855 138.928 363.675 139.354 363.315C139.794 362.955 140.014 362.508 140.014 361.975C140.014 361.602 139.894 361.295 139.654 361.055C139.414 360.815 139.108 360.628 138.734 360.495C138.374 360.348 137.881 360.195 137.254 360.035C136.441 359.822 135.781 359.608 135.274 359.395C134.768 359.182 134.334 358.868 133.974 358.455C133.628 358.028 133.454 357.462 133.454 356.755C133.454 356.222 133.614 355.728 133.934 355.275C134.254 354.822 134.708 354.462 135.294 354.195C135.881 353.928 136.548 353.795 137.294 353.795C138.468 353.795 139.414 354.095 140.134 354.695C140.854 355.282 141.241 356.095 141.294 357.135H139.894C139.854 356.495 139.601 355.982 139.134 355.595C138.681 355.195 138.054 354.995 137.254 354.995C136.548 354.995 135.974 355.162 135.534 355.495C135.094 355.828 134.874 356.242 134.874 356.735C134.874 357.162 135.001 357.515 135.254 357.795C135.521 358.062 135.848 358.275 136.234 358.435C136.621 358.582 137.141 358.748 137.794 358.935C138.581 359.148 139.208 359.355 139.674 359.555C140.141 359.755 140.541 360.048 140.874 360.435C141.208 360.822 141.381 361.335 141.394 361.975C141.394 362.562 141.234 363.088 140.914 363.555C140.594 364.008 140.148 364.368 139.574 364.635C139.001 364.902 138.341 365.035 137.594 365.035ZM163.078 350.895V352.055H156.918V357.275H162.118V358.435H156.918V364.875H155.518V350.895H163.078ZM167.741 359.395C167.741 358.275 167.961 357.295 168.401 356.455C168.855 355.602 169.475 354.948 170.261 354.495C171.061 354.028 171.961 353.795 172.961 353.795C174.001 353.795 174.895 354.035 175.641 354.515C176.401 354.995 176.948 355.608 177.281 356.355V353.955H178.681V364.875H177.281V362.455C176.935 363.202 176.381 363.822 175.621 364.315C174.875 364.795 173.981 365.035 172.941 365.035C171.955 365.035 171.061 364.802 170.261 364.335C169.475 363.868 168.855 363.208 168.401 362.355C167.961 361.502 167.741 360.515 167.741 359.395ZM177.281 359.415C177.281 358.535 177.101 357.762 176.741 357.095C176.381 356.428 175.888 355.915 175.261 355.555C174.648 355.195 173.968 355.015 173.221 355.015C172.448 355.015 171.755 355.188 171.141 355.535C170.528 355.882 170.041 356.388 169.681 357.055C169.335 357.708 169.161 358.488 169.161 359.395C169.161 360.288 169.335 361.075 169.681 361.755C170.041 362.422 170.528 362.935 171.141 363.295C171.755 363.642 172.448 363.815 173.221 363.815C173.968 363.815 174.648 363.635 175.261 363.275C175.888 362.915 176.381 362.402 176.741 361.735C177.101 361.068 177.281 360.295 177.281 359.415ZM188.637 365.035C187.384 365.035 186.357 364.748 185.557 364.175C184.771 363.588 184.331 362.795 184.237 361.795H185.677C185.744 362.408 186.031 362.908 186.537 363.295C187.057 363.668 187.751 363.855 188.617 363.855C189.377 363.855 189.971 363.675 190.397 363.315C190.837 362.955 191.057 362.508 191.057 361.975C191.057 361.602 190.937 361.295 190.697 361.055C190.457 360.815 190.151 360.628 189.777 360.495C189.417 360.348 188.924 360.195 188.297 360.035C187.484 359.822 186.824 359.608 186.317 359.395C185.811 359.182 185.377 358.868 185.017 358.455C184.671 358.028 184.497 357.462 184.497 356.755C184.497 356.222 184.657 355.728 184.977 355.275C185.297 354.822 185.751 354.462 186.337 354.195C186.924 353.928 187.591 353.795 188.337 353.795C189.511 353.795 190.457 354.095 191.177 354.695C191.897 355.282 192.284 356.095 192.337 357.135H190.937C190.897 356.495 190.644 355.982 190.177 355.595C189.724 355.195 189.097 354.995 188.297 354.995C187.591 354.995 187.017 355.162 186.577 355.495C186.137 355.828 185.917 356.242 185.917 356.735C185.917 357.162 186.044 357.515 186.297 357.795C186.564 358.062 186.891 358.275 187.277 358.435C187.664 358.582 188.184 358.748 188.837 358.935C189.624 359.148 190.251 359.355 190.717 359.555C191.184 359.755 191.584 360.048 191.917 360.435C192.251 360.822 192.424 361.335 192.437 361.975C192.437 362.562 192.277 363.088 191.957 363.555C191.637 364.008 191.191 364.368 190.617 364.635C190.044 364.902 189.384 365.035 188.637 365.035ZM203.273 353.755C204.099 353.755 204.839 353.928 205.493 354.275C206.159 354.622 206.679 355.155 207.053 355.875C207.439 356.582 207.633 357.448 207.633 358.475V364.875H206.253V358.635C206.253 357.448 205.953 356.542 205.353 355.915C204.766 355.288 203.959 354.975 202.933 354.975C201.879 354.975 201.039 355.308 200.413 355.975C199.786 356.642 199.473 357.622 199.473 358.915V364.875H198.073V350.075H199.473V355.815C199.819 355.162 200.326 354.655 200.993 354.295C201.673 353.935 202.433 353.755 203.273 353.755ZM214.429 351.895C214.149 351.895 213.909 351.795 213.709 351.595C213.509 351.395 213.409 351.148 213.409 350.855C213.409 350.562 213.509 350.322 213.709 350.135C213.909 349.935 214.149 349.835 214.429 349.835C214.709 349.835 214.949 349.935 215.149 350.135C215.349 350.322 215.449 350.562 215.449 350.855C215.449 351.148 215.349 351.395 215.149 351.595C214.949 351.795 214.709 351.895 214.429 351.895ZM215.129 353.955V364.875H213.729V353.955H215.129ZM226.079 365.035C225.053 365.035 224.126 364.808 223.299 364.355C222.486 363.888 221.839 363.235 221.359 362.395C220.893 361.542 220.659 360.548 220.659 359.415C220.659 358.282 220.899 357.295 221.379 356.455C221.859 355.602 222.513 354.948 223.339 354.495C224.166 354.028 225.093 353.795 226.119 353.795C227.146 353.795 228.073 354.028 228.899 354.495C229.739 354.948 230.393 355.602 230.859 356.455C231.339 357.295 231.579 358.282 231.579 359.415C231.579 360.535 231.339 361.522 230.859 362.375C230.379 363.228 229.719 363.888 228.879 364.355C228.039 364.808 227.106 365.035 226.079 365.035ZM226.079 363.815C226.799 363.815 227.466 363.655 228.079 363.335C228.693 363.002 229.186 362.508 229.559 361.855C229.946 361.188 230.139 360.375 230.139 359.415C230.139 358.455 229.953 357.648 229.579 356.995C229.206 356.328 228.713 355.835 228.099 355.515C227.486 355.182 226.819 355.015 226.099 355.015C225.379 355.015 224.713 355.182 224.099 355.515C223.486 355.835 222.993 356.328 222.619 356.995C222.259 357.648 222.079 358.455 222.079 359.415C222.079 360.375 222.259 361.188 222.619 361.855C222.993 362.508 223.479 363.002 224.079 363.335C224.693 363.655 225.359 363.815 226.079 363.815ZM242.251 353.755C243.558 353.755 244.625 354.162 245.451 354.975C246.278 355.775 246.691 356.942 246.691 358.475V364.875H245.311V358.635C245.311 357.448 245.011 356.542 244.411 355.915C243.825 355.288 243.018 354.975 241.991 354.975C240.938 354.975 240.098 355.308 239.471 355.975C238.845 356.642 238.531 357.622 238.531 358.915V364.875H237.131V353.955H238.531V355.815C238.878 355.148 239.378 354.642 240.031 354.295C240.685 353.935 241.425 353.755 242.251 353.755ZM267.816 357.655C268.602 357.802 269.269 358.202 269.816 358.855C270.362 359.508 270.636 360.268 270.636 361.135C270.636 361.842 270.456 362.482 270.096 363.055C269.749 363.615 269.236 364.062 268.556 364.395C267.876 364.715 267.062 364.875 266.116 364.875H261.276V350.895H265.976C267.389 350.895 268.462 351.222 269.196 351.875C269.942 352.528 270.316 353.375 270.316 354.415C270.316 355.282 270.082 355.988 269.616 356.535C269.149 357.068 268.549 357.442 267.816 357.655ZM262.676 357.075H265.936C266.882 357.075 267.609 356.855 268.116 356.415C268.636 355.962 268.896 355.342 268.896 354.555C268.896 353.782 268.636 353.175 268.116 352.735C267.609 352.295 266.862 352.075 265.876 352.075H262.676V357.075ZM266.016 363.695C267.029 363.695 267.816 363.455 268.376 362.975C268.949 362.495 269.236 361.835 269.236 360.995C269.236 360.155 268.936 359.488 268.336 358.995C267.749 358.488 266.956 358.235 265.956 358.235H262.676V363.695H266.016ZM277.609 355.895C277.916 355.215 278.383 354.688 279.009 354.315C279.649 353.942 280.429 353.755 281.349 353.755V355.215H280.969C279.956 355.215 279.143 355.488 278.529 356.035C277.916 356.582 277.609 357.495 277.609 358.775V364.875H276.209V353.955H277.609V355.895ZM285.815 359.395C285.815 358.275 286.035 357.295 286.475 356.455C286.929 355.602 287.549 354.948 288.335 354.495C289.135 354.028 290.035 353.795 291.035 353.795C292.075 353.795 292.969 354.035 293.715 354.515C294.475 354.995 295.022 355.608 295.355 356.355V353.955H296.755V364.875H295.355V362.455C295.009 363.202 294.455 363.822 293.695 364.315C292.949 364.795 292.055 365.035 291.015 365.035C290.029 365.035 289.135 364.802 288.335 364.335C287.549 363.868 286.929 363.208 286.475 362.355C286.035 361.502 285.815 360.515 285.815 359.395ZM295.355 359.415C295.355 358.535 295.175 357.762 294.815 357.095C294.455 356.428 293.962 355.915 293.335 355.555C292.722 355.195 292.042 355.015 291.295 355.015C290.522 355.015 289.829 355.188 289.215 355.535C288.602 355.882 288.115 356.388 287.755 357.055C287.409 357.708 287.235 358.488 287.235 359.395C287.235 360.288 287.409 361.075 287.755 361.755C288.115 362.422 288.602 362.935 289.215 363.295C289.829 363.642 290.522 363.815 291.295 363.815C292.042 363.815 292.722 363.635 293.335 363.275C293.962 362.915 294.455 362.402 294.815 361.735C295.175 361.068 295.355 360.295 295.355 359.415ZM302.312 359.415C302.312 358.282 302.538 357.295 302.992 356.455C303.445 355.602 304.072 354.948 304.872 354.495C305.672 354.028 306.585 353.795 307.612 353.795C308.958 353.795 310.065 354.128 310.932 354.795C311.812 355.462 312.378 356.368 312.632 357.515H311.132C310.945 356.728 310.538 356.115 309.912 355.675C309.298 355.222 308.532 354.995 307.612 354.995C306.878 354.995 306.218 355.162 305.632 355.495C305.045 355.828 304.578 356.328 304.232 356.995C303.898 357.648 303.732 358.455 303.732 359.415C303.732 360.375 303.898 361.188 304.232 361.855C304.578 362.522 305.045 363.022 305.632 363.355C306.218 363.688 306.878 363.855 307.612 363.855C308.532 363.855 309.298 363.635 309.912 363.195C310.538 362.742 310.945 362.115 311.132 361.315H312.632C312.378 362.435 311.812 363.335 310.932 364.015C310.052 364.695 308.945 365.035 307.612 365.035C306.585 365.035 305.672 364.808 304.872 364.355C304.072 363.888 303.445 363.235 302.992 362.395C302.538 361.542 302.312 360.548 302.312 359.415ZM328.097 358.855C328.097 359.335 328.084 359.702 328.057 359.955H318.997C319.037 360.782 319.237 361.488 319.597 362.075C319.957 362.662 320.431 363.108 321.017 363.415C321.604 363.708 322.244 363.855 322.937 363.855C323.844 363.855 324.604 363.635 325.217 363.195C325.844 362.755 326.257 362.162 326.457 361.415H327.937C327.671 362.482 327.097 363.355 326.217 364.035C325.351 364.702 324.257 365.035 322.937 365.035C321.911 365.035 320.991 364.808 320.177 364.355C319.364 363.888 318.724 363.235 318.257 362.395C317.804 361.542 317.577 360.548 317.577 359.415C317.577 358.282 317.804 357.288 318.257 356.435C318.711 355.582 319.344 354.928 320.157 354.475C320.971 354.022 321.897 353.795 322.937 353.795C323.977 353.795 324.884 354.022 325.657 354.475C326.444 354.928 327.044 355.542 327.457 356.315C327.884 357.075 328.097 357.922 328.097 358.855ZM326.677 358.815C326.691 358.002 326.524 357.308 326.177 356.735C325.844 356.162 325.384 355.728 324.797 355.435C324.211 355.142 323.571 354.995 322.877 354.995C321.837 354.995 320.951 355.328 320.217 355.995C319.484 356.662 319.077 357.602 318.997 358.815H326.677ZM335.059 350.075V364.875H333.659V350.075H335.059ZM351.109 358.855C351.109 359.335 351.096 359.702 351.069 359.955H342.009C342.049 360.782 342.249 361.488 342.609 362.075C342.969 362.662 343.442 363.108 344.029 363.415C344.616 363.708 345.256 363.855 345.949 363.855C346.856 363.855 347.616 363.635 348.229 363.195C348.856 362.755 349.269 362.162 349.469 361.415H350.949C350.682 362.482 350.109 363.355 349.229 364.035C348.362 364.702 347.269 365.035 345.949 365.035C344.922 365.035 344.002 364.808 343.189 364.355C342.376 363.888 341.736 363.235 341.269 362.395C340.816 361.542 340.589 360.548 340.589 359.415C340.589 358.282 340.816 357.288 341.269 356.435C341.722 355.582 342.356 354.928 343.169 354.475C343.982 354.022 344.909 353.795 345.949 353.795C346.989 353.795 347.896 354.022 348.669 354.475C349.456 354.928 350.056 355.542 350.469 356.315C350.896 357.075 351.109 357.922 351.109 358.855ZM349.689 358.815C349.702 358.002 349.536 357.308 349.189 356.735C348.856 356.162 348.396 355.728 347.809 355.435C347.222 355.142 346.582 354.995 345.889 354.995C344.849 354.995 343.962 355.328 343.229 355.995C342.496 356.662 342.089 357.602 342.009 358.815H349.689ZM358.49 355.135V361.915C358.49 362.582 358.617 363.042 358.87 363.295C359.124 363.548 359.57 363.675 360.21 363.675H361.49V364.875H359.99C359.004 364.875 358.27 364.648 357.79 364.195C357.31 363.728 357.07 362.968 357.07 361.915V355.135H355.55V353.955H357.07V351.215H358.49V353.955H361.49V355.135H358.49ZM370.559 365.035C369.306 365.035 368.279 364.748 367.479 364.175C366.693 363.588 366.253 362.795 366.159 361.795H367.599C367.666 362.408 367.953 362.908 368.459 363.295C368.979 363.668 369.673 363.855 370.539 363.855C371.299 363.855 371.893 363.675 372.319 363.315C372.759 362.955 372.979 362.508 372.979 361.975C372.979 361.602 372.859 361.295 372.619 361.055C372.379 360.815 372.073 360.628 371.699 360.495C371.339 360.348 370.846 360.195 370.219 360.035C369.406 359.822 368.746 359.608 368.239 359.395C367.733 359.182 367.299 358.868 366.939 358.455C366.593 358.028 366.419 357.462 366.419 356.755C366.419 356.222 366.579 355.728 366.899 355.275C367.219 354.822 367.673 354.462 368.259 354.195C368.846 353.928 369.513 353.795 370.259 353.795C371.433 353.795 372.379 354.095 373.099 354.695C373.819 355.282 374.206 356.095 374.259 357.135H372.859C372.819 356.495 372.566 355.982 372.099 355.595C371.646 355.195 371.019 354.995 370.219 354.995C369.513 354.995 368.939 355.162 368.499 355.495C368.059 355.828 367.839 356.242 367.839 356.735C367.839 357.162 367.966 357.515 368.219 357.795C368.486 358.062 368.813 358.275 369.199 358.435C369.586 358.582 370.106 358.748 370.759 358.935C371.546 359.148 372.173 359.355 372.639 359.555C373.106 359.755 373.506 360.048 373.839 360.435C374.173 360.822 374.346 361.335 374.359 361.975C374.359 362.562 374.199 363.088 373.879 363.555C373.559 364.008 373.113 364.368 372.539 364.635C371.966 364.902 371.306 365.035 370.559 365.035Z" fill="black"/>
<path d="M234.816 104.68C240.936 105.591 246.535 107.284 251.613 109.758C256.691 112.232 261.053 115.357 264.699 119.133C268.475 122.779 271.34 126.945 273.293 131.633C275.376 136.32 276.418 141.333 276.418 146.672C276.418 152.141 275.441 157.219 273.488 161.906C271.535 166.594 268.801 170.76 265.285 174.406C261.77 178.052 257.538 181.177 252.59 183.781C247.642 186.255 242.238 187.948 236.379 188.859V226.75C242.238 226.49 247.577 226.294 252.395 226.164C257.212 226.034 261.184 225.904 264.309 225.773C273.033 225.383 281.887 224.797 290.871 224.016C299.986 223.104 308.059 222.128 315.09 221.086L312.746 237.102C307.538 236.841 300.767 236.646 292.434 236.516C284.1 236.385 275.572 236.255 266.848 236.125C263.202 236.125 258.775 236.19 253.566 236.32C248.358 236.32 242.694 236.451 236.574 236.711C230.585 236.841 224.4 237.036 218.02 237.297C211.77 237.427 205.78 237.622 200.051 237.883C194.322 238.013 189.113 238.208 184.426 238.469C179.868 238.729 176.288 238.924 173.684 239.055C168.736 239.315 163.462 239.706 157.863 240.227C152.264 240.747 147.056 241.333 142.238 241.984L135.988 224.797C141.848 225.448 148.033 226.034 154.543 226.555C161.184 226.945 167.499 227.271 173.488 227.531C175.832 227.661 178.632 227.727 181.887 227.727C185.272 227.727 188.918 227.727 192.824 227.727C196.73 227.727 200.832 227.727 205.129 227.727C209.426 227.596 213.723 227.466 218.02 227.336V189.25C211.77 188.599 205.975 187.102 200.637 184.758C195.428 182.284 190.936 179.224 187.16 175.578C183.384 171.802 180.389 167.505 178.176 162.688C176.092 157.74 175.051 152.401 175.051 146.672C175.051 141.073 176.158 135.799 178.371 130.852C180.585 125.904 183.645 121.542 187.551 117.766C191.587 113.99 196.34 110.93 201.809 108.586C207.277 106.242 213.202 104.81 219.582 104.289C219.582 102.336 218.996 100.773 217.824 99.6016C216.652 98.4297 214.178 97.3229 210.402 96.2812L214.113 90.4219C215.676 90.8125 217.434 91.2031 219.387 91.5938C221.34 91.9844 223.358 92.375 225.441 92.7656C227.655 93.1562 229.803 93.5469 231.887 93.9375C234.1 94.3281 236.053 94.7188 237.746 95.1094C237.225 96.2812 236.639 97.7135 235.988 99.4062C235.467 101.099 235.077 102.857 234.816 104.68ZM256.496 146.672C256.496 142.115 255.65 137.818 253.957 133.781C252.395 129.745 250.246 126.294 247.512 123.43C244.777 120.435 241.522 118.091 237.746 116.398C234.1 114.706 230.129 113.859 225.832 113.859C221.665 113.859 217.694 114.706 213.918 116.398C210.272 118.091 207.082 120.435 204.348 123.43C201.613 126.294 199.4 129.745 197.707 133.781C196.145 137.818 195.363 142.115 195.363 146.672C195.363 151.359 196.145 155.656 197.707 159.562C199.4 163.469 201.613 166.854 204.348 169.719C207.082 172.583 210.272 174.862 213.918 176.555C217.694 178.117 221.665 178.898 225.832 178.898C230.129 178.898 234.1 178.117 237.746 176.555C241.522 174.862 244.777 172.583 247.512 169.719C250.376 166.854 252.59 163.469 254.152 159.562C255.715 155.656 256.496 151.359 256.496 146.672Z" fill="url(#paint0_linear_52_955)"/>
<defs>
<linearGradient id="paint0_linear_52_955" x1="193.625" y1="91.625" x2="359.563" y2="277.25" gradientUnits="userSpaceOnUse">
<stop/>
<stop offset="1"/>
</linearGradient>
</defs>
</svg>
